<svg width="498" height="157" viewBox="0 0 498 157" fill="none" xmlns="http://www.w3.org/2000/svg">
<path d="M7.97234 39.9779L8.68038 89.2399C8.68038 89.2399 35.0248 88.1097 49.6788 63.0976C64.3328 38.0855 52.4031 14.513 52.4031 14.513L7.97234 39.9779Z" fill="#6F3CE4"/>
<path d="M60.8048 127.282L102.924 101.723C102.924 101.723 88.6078 79.5796 59.619 79.6106C30.6303 79.6416 16.3458 101.866 16.3458 101.866L60.8048 127.282Z" fill="#6F3CE4"/>
<path d="M111.306 38.2011L68.4391 13.9172C68.4391 13.9172 56.1011 37.2212 70.2788 62.5064C84.4565 87.7915 110.826 89.4098 110.826 89.4098L111.306 38.2011Z" fill="#6F3CE4"/>
<path d="M159 41C166.8 41 173.167 41.7333 178.1 43.2C183.1 44.6667 186.967 47.4333 189.7 51.5C192.5 55.5667 193.9 61.4 193.9 69C193.9 77.1333 192.433 83.3333 189.5 87.6C186.567 91.8 182.633 94.6 177.7 96C172.767 97.3333 166.533 98 159 98H139V41H159ZM172.4 84.4C173.2 83.6 173.767 81.5333 174.1 78.2C174.433 74.8667 174.6 71.8 174.6 69C174.6 65.4667 174.333 62.6667 173.8 60.6C173.333 58.4667 172.467 56.7667 171.2 55.5C169.2 53.3 165.767 52.2 160.9 52.2C160.033 52.2 158.733 52.2667 157 52.4V85.6C158.133 85.7333 159.9 85.8 162.3 85.8C164.767 85.8 166.933 85.7 168.8 85.5C170.733 85.2333 171.933 84.8667 172.4 84.4ZM228.891 86C230.557 86 233.657 85.8333 238.191 85.5C238.791 85.5 239.891 85.4333 241.491 85.3L242.991 95.6C237.857 98 231.191 99.2 222.991 99.2C215.324 99.2 209.424 97.2667 205.291 93.4C201.224 89.5333 199.191 83.7 199.191 75.9C199.191 71.9 199.691 68.0333 200.691 64.3C201.757 60.5667 202.957 57.9667 204.291 56.5C205.691 55.0333 208.291 53.7667 212.091 52.7C215.891 51.6333 219.657 51.1 223.391 51.1C229.391 51.1 233.891 52.1667 236.891 54.3C239.891 56.4333 241.857 59.4 242.791 63.2C243.724 66.9333 244.191 71.9667 244.191 78.3C239.657 78.5667 235.224 78.7 230.891 78.7H216.691C216.691 80.8333 217.124 82.4333 217.991 83.5C218.924 84.5667 220.224 85.2667 221.891 85.6C223.557 85.8667 225.891 86 228.891 86ZM217.691 63C217.291 63.2 216.991 64.0667 216.791 65.6C216.591 67.1333 216.457 68.8667 216.391 70.8H221.591C224.724 70.8 226.991 70.7667 228.391 70.7C228.391 67.5 227.924 65.2333 226.991 63.9C226.124 62.5667 224.591 61.9 222.391 61.9C220.591 61.9 219.024 62.2667 217.691 63ZM258.609 74.5L247.109 52H263.709L272.009 69.8L280.409 52H296.909L285.509 74.5L298.009 98H281.309L272.009 79L262.709 98H246.009L258.609 74.5ZM319.267 56.4C319.267 57.8 319.967 58.9 321.367 59.7C322.834 60.5 325.101 61.3667 328.167 62.3C331.834 63.5 334.834 64.6667 337.167 65.8C339.567 66.9333 341.634 68.7 343.367 71.1C345.167 73.5 346.067 76.6333 346.067 80.5C346.067 92.9 338.001 99.1 321.867 99.1C319.201 99.1 315.934 98.8667 312.067 98.4C308.267 97.9333 304.801 97.3333 301.667 96.6C301.801 95.2 302.067 93.1667 302.467 90.5C302.934 87.7667 303.367 85.7333 303.767 84.4C306.101 84.7333 309.601 85.1333 314.267 85.6C319.001 86.0667 322.567 86.3 324.967 86.3C326.367 86.3 327.201 86.2 327.467 86C327.867 85.7333 328.167 85.3 328.367 84.7C328.634 84.0333 328.767 83.4667 328.767 83C328.767 81.6667 328.134 80.6667 326.867 80C325.601 79.2667 323.434 78.4 320.367 77.4C316.701 76.2667 313.667 75.1 311.267 73.9C308.867 72.7 306.767 70.8333 304.967 68.3C303.167 65.7667 302.267 62.4333 302.267 58.3C302.267 55.3667 302.934 52.5 304.267 49.7C305.601 46.8333 306.967 44.9 308.367 43.9C309.434 43.1667 311.634 42.4667 314.967 41.8C318.301 41.1333 321.434 40.8 324.367 40.8C331.834 40.8 337.934 41.5 342.667 42.9C342.601 44.2333 342.367 46.0667 341.967 48.4C341.634 50.7333 341.267 52.8667 340.867 54.8L338.567 54.7C329.901 54.1 324.367 53.8 321.967 53.8C320.967 53.8 320.401 53.8333 320.267 53.9C320.001 54.0333 319.767 54.3333 319.567 54.8C319.367 55.2667 319.267 55.8 319.267 56.4ZM398.786 52L386.786 90.5C384.453 97.9 382.353 103.267 380.486 106.6C378.619 110 376.753 112.367 374.886 113.7C373.819 114.433 372.119 115 369.786 115.4C367.519 115.8 365.053 116 362.386 116C358.386 116 355.186 115.633 352.786 114.9C352.719 113.3 352.786 111.333 352.986 109C353.186 106.733 353.453 104.8 353.786 103.2C356.586 103.333 359.319 103.4 361.986 103.4C363.986 103.4 365.486 103.367 366.486 103.3C367.486 101.367 368.419 99.3333 369.286 97.2L362.386 96.8L346.986 52H365.086L373.086 84.2L373.186 86.1H373.486L380.686 52H398.786ZM447.248 54.9C447.848 55.6333 448.282 57.4667 448.548 60.4C448.882 63.3333 449.048 67.8 449.048 73.8V98H431.948V74V69.9C431.948 67.7667 431.782 66.4333 431.448 65.9C430.915 65.2333 429.682 64.9 427.748 64.9C426.815 64.9 426.115 64.9333 425.648 65C423.782 65.0667 421.848 65.5 419.848 66.3V98H402.748V52H416.648L418.548 59.7C423.348 53.9 429.082 51 435.748 51C438.148 51 440.382 51.3333 442.448 52C444.582 52.6667 446.182 53.6333 447.248 54.9ZM495.648 96.6C490.248 98.4 484.214 99.3 477.548 99.3C470.081 99.3 464.481 97.4333 460.748 93.7C457.081 89.9 455.248 84 455.248 76C455.248 72.0667 455.781 68.2 456.848 64.4C457.914 60.5333 459.048 57.9333 460.248 56.6C461.648 55.0667 464.381 53.7667 468.448 52.7C472.581 51.6333 476.848 51.1 481.248 51.1C485.848 51.1 490.481 51.5 495.148 52.3C495.014 53.9667 494.781 55.9333 494.448 58.2C494.181 60.4 493.881 62.3667 493.548 64.1C489.414 63.8333 485.514 63.7 481.848 63.7C478.248 63.7 475.948 63.9 474.948 64.3C474.414 64.5 473.914 65.8667 473.448 68.4C473.048 70.9333 472.848 73.3 472.848 75.5C472.848 78.4333 473.248 80.7 474.048 82.3C474.914 83.8333 476.248 84.9 478.048 85.5C479.848 86.1 482.281 86.4 485.348 86.4C486.681 86.4 489.614 86.2667 494.148 86L495.648 96.6Z" fill="white"/>
</svg>
