<svg width="16" height="17" viewBox="0 0 16 17" fill="none" xmlns="http://www.w3.org/2000/svg">
<path d="M8.96125 1.61565C8.89961 1.5644 8.82656 1.52873 8.74824 1.51163C8.66993 1.49453 8.58865 1.49651 8.51127 1.51741C8.43388 1.5383 8.36265 1.57749 8.30359 1.63168C8.24452 1.68587 8.19935 1.75347 8.17188 1.82877L6.79688 5.6044L5.28687 4.14127C5.23616 4.09209 5.17561 4.05421 5.10919 4.03013C5.04278 4.00605 4.97201 3.99631 4.90157 4.00157C4.83112 4.00682 4.76258 4.02695 4.70047 4.06062C4.63837 4.09429 4.5841 4.14073 4.54125 4.1969C3.1875 5.97065 2.5 7.75502 2.5 9.50002C2.5 10.9587 3.07946 12.3577 4.11091 13.3891C5.14236 14.4206 6.54131 15 8 15C9.45869 15 10.8576 14.4206 11.8891 13.3891C12.9205 12.3577 13.5 10.9587 13.5 9.50002C13.5 5.7844 10.3256 2.75002 8.96125 1.61565ZM11.4931 10.0838C11.3635 10.808 11.0151 11.475 10.4948 11.9952C9.9745 12.5154 9.30734 12.8637 8.58313 12.9931C8.55567 12.9979 8.52786 13.0002 8.5 13C8.37458 13 8.25375 12.9528 8.16148 12.8679C8.06921 12.7829 8.01223 12.6664 8.00185 12.5414C7.99146 12.4164 8.02843 12.2921 8.10542 12.1931C8.18242 12.0941 8.2938 12.0276 8.4175 12.0069C9.45312 11.8325 10.3319 10.9538 10.5075 9.91627C10.5297 9.78549 10.603 9.66888 10.7112 9.59211C10.8193 9.51534 10.9536 9.48468 11.0844 9.5069C11.2152 9.52911 11.3318 9.60236 11.4085 9.71055C11.4853 9.81873 11.516 9.95299 11.4937 10.0838H11.4931Z" fill="url(#paint0_radial_1_110)"/>
<defs>
<radialGradient id="paint0_radial_1_110" cx="0" cy="0" r="1" gradientUnits="userSpaceOnUse" gradientTransform="translate(8.5 14) rotate(-90) scale(15.5 9.38178)">
<stop stop-color="#A6A8AA"/>
<stop offset="1" stop-color="#6F767E" stop-opacity="0"/>
</radialGradient>
</defs>
</svg>
