<svg width="1221" height="732" viewBox="0 0 1221 732" fill="none" xmlns="http://www.w3.org/2000/svg">
<g filter="url(#filter0_di_107_2)">
<path d="M176.008 502.86C190.016 525.815 226.6 519.745 245.125 539.258C266.927 562.373 253.998 609.73 282.149 623.943C290.629 627.829 300.47 627.352 308.95 631.239C332.271 641.926 332.377 678.983 354.287 692.961C376.716 706.914 405.447 687.796 431.49 689.757C451.269 690.947 473.626 703.292 488.612 690.212C500.61 679.962 500.636 657.401 515.983 652.36C541.569 644.137 553.937 699.937 579.005 691.74C589.244 688.558 593.377 676.541 602.46 670.729C621.12 658.545 644.921 679.951 666.508 675.145C693.768 669.527 709.431 625.26 735.787 634.189C746.857 637.949 753.108 650 761.732 657.102C783.293 674.857 815.493 663.629 837.044 646.47C846.573 639.026 858.126 630.409 868.726 635.267C874.568 638.206 877.989 645.023 882.373 650.182C900.007 672.962 940.361 669.932 955.336 645.035C962.552 632.331 963.927 616.688 973.287 605.491C986.105 590.368 1008.94 590.335 1028.13 589.942C1047.84 589.524 1071.01 585.179 1078.99 566.529C1083.2 556.12 1081.58 543.307 1087.39 533.894C1096.61 519.482 1119.49 520.522 1130.29 506.57C1139.63 494.838 1135.72 477.301 1139.19 462.093C1145.71 433.846 1178.26 418.841 1185.3 390.569C1190.15 371.533 1181.96 350.982 1185.76 331.461C1187.89 321.152 1193.18 311.765 1195.86 301.967C1203.48 275.277 1191.83 246.837 1181.35 221.562C1165.7 185.258 1150.6 149.464 1134.95 113.16C1125.7 92.1229 1115.32 68.9921 1094.17 60.3487C1086.23 56.9734 1077.35 55.7922 1070.36 50.2228C1064.96 45.6501 1062.06 38.8079 1058.17 33.0879C1038.17 3.97715 994.24 8.25468 962.726 23.2102C908.831 48.3816 864.704 94.5652 841.776 150.464C823.03 195.418 817.991 245.078 797.1 288.524C786.643 309.98 772.982 329.441 758.212 347.345C722.3 391.519 679.884 429.563 632.444 459.793C587.523 488.289 480.354 425.266 445.339 396.884C404.385 363.417 403.217 348.971 369.539 315.689C330.959 277.274 302.324 298.535 258.945 315.14C229.36 326.779 181.008 313.545 158.493 332.362C122.991 362.55 165.91 381.956 177.376 406.109C192.359 439.222 158.603 473.623 176.008 502.86Z" fill="url(#paint0_linear_107_2)"/>
<path d="M246.21 538.22L246.213 538.223C251.891 544.242 255.258 551.788 257.586 559.819C259.482 566.358 260.714 573.322 261.915 580.115C262.186 581.642 262.454 583.161 262.728 584.664C265.758 601.266 269.493 615.853 282.799 622.587C286.837 624.433 291.225 625.257 295.827 626.113L295.912 626.129C300.435 626.97 305.168 627.851 309.576 629.871C321.817 635.481 327.869 647.977 333.507 660.232C333.729 660.714 333.95 661.197 334.171 661.678C339.668 673.652 344.989 685.242 355.086 691.687C365.76 698.324 378.018 697.169 391.23 694.385C393.986 693.804 396.827 693.142 399.696 692.474C403.565 691.572 407.485 690.658 411.315 689.917C418.072 688.608 424.896 687.754 431.596 688.257C436.661 688.563 441.859 689.579 446.976 690.701C448.179 690.965 449.376 691.234 450.567 691.501C454.48 692.381 458.324 693.245 462.09 693.852C471.918 695.434 480.665 695.16 487.632 689.079L487.638 689.073L487.644 689.068C490.44 686.679 492.585 683.533 494.472 679.978C495.835 677.41 497.024 674.71 498.232 671.968C498.708 670.888 499.187 669.801 499.68 668.713C503.093 661.188 507.162 653.677 515.522 650.932L515.531 650.929C522.548 648.674 528.622 650.872 534.01 655.001C539.335 659.083 544.18 665.194 548.861 671.103L548.901 671.153C553.633 677.128 558.2 682.893 563.098 686.699C567.95 690.468 572.912 692.153 578.545 690.311L578.556 690.307L578.566 690.304C583.228 688.855 586.577 685.38 590.02 681.257C590.493 680.691 590.968 680.112 591.448 679.526C594.385 675.946 597.539 672.099 601.653 669.465C611.623 662.96 622.889 665.517 633.811 668.728C635.075 669.099 636.335 669.48 637.591 669.86C641.859 671.15 646.09 672.428 650.322 673.297C655.774 674.416 661.077 674.816 666.188 673.678L666.2 673.675L666.211 673.673C672.677 672.34 678.541 668.697 684.168 663.969C688.462 660.361 692.527 656.205 696.588 652.054C697.867 650.746 699.145 649.44 700.43 648.15C705.74 642.823 711.159 637.803 716.979 634.704C722.864 631.57 729.213 630.374 736.269 632.764L736.271 632.765C742.176 634.771 746.718 638.962 750.777 643.37C751.987 644.684 753.146 646.006 754.285 647.305C757.052 650.461 759.703 653.485 762.684 655.939C773.019 664.45 785.959 666.078 799.099 663.406C812.257 660.73 825.482 653.761 836.117 645.294L836.128 645.285C840.875 641.576 846.277 637.45 851.866 634.888C857.474 632.317 863.499 631.217 869.351 633.899L869.376 633.91L869.4 633.922C872.619 635.542 875.1 638.193 877.273 640.959C878.176 642.109 879.048 643.31 879.9 644.482C880.075 644.722 880.248 644.961 880.421 645.198C881.448 646.606 882.456 647.96 883.513 649.204L883.535 649.23L883.556 649.257C892.003 660.169 905.968 664.982 919.749 663.988C933.524 662.994 946.857 656.214 954.046 644.277C956.985 639.097 958.928 633.426 960.915 627.625C961.304 626.488 961.695 625.347 962.096 624.203C964.516 617.29 967.273 610.351 972.142 604.527L972.148 604.519C978.86 596.601 988.143 592.702 998.032 590.719C1007.34 588.851 1017.36 588.653 1026.48 588.472C1027.03 588.461 1027.57 588.451 1028.11 588.44C1037.89 588.232 1048.41 587.05 1057.44 583.665C1066.44 580.289 1073.83 574.775 1077.61 565.953C1079.38 561.58 1080.07 556.762 1080.8 551.755C1080.9 551.047 1081 550.335 1081.11 549.62C1081.96 543.945 1083.04 538.104 1086.12 533.106L1086.13 533.095L1086.13 533.085C1091.04 525.406 1099.56 521.916 1107.7 518.663C1107.86 518.597 1108.03 518.532 1108.19 518.466C1116.34 515.213 1124.11 512.109 1129.11 505.65L1129.11 505.642L1129.12 505.634C1133.49 500.14 1134.83 493.215 1135.45 485.518C1135.62 483.382 1135.74 481.172 1135.86 478.927C1136.16 473.236 1136.47 467.315 1137.73 461.762L1137.74 461.758C1141.1 447.186 1151.17 436.09 1160.95 425.329L1161.01 425.26C1170.88 414.408 1180.44 403.881 1183.85 390.208L1183.85 390.2C1186.2 380.976 1185.41 371.336 1184.44 361.347C1184.4 360.918 1184.35 360.487 1184.31 360.056C1183.38 350.56 1182.43 340.761 1184.29 331.178L1184.29 331.169L1184.3 331.16C1185.39 325.865 1187.29 320.833 1189.21 315.971C1189.44 315.393 1189.67 314.817 1189.9 314.244C1191.6 309.961 1193.26 305.805 1194.41 301.574L1194.42 301.565L1194.42 301.556C1198.14 288.55 1197.17 275.051 1193.94 261.591C1190.7 248.123 1185.21 234.805 1179.97 222.154C1172.15 204.002 1164.46 185.978 1156.77 167.957C1149.09 149.934 1141.4 131.914 1133.58 113.766C1128.95 103.231 1124.09 92.314 1117.78 82.9517C1111.49 73.6037 1103.81 65.9128 1093.6 61.7411L1093.59 61.7371L1093.58 61.733C1091 60.6335 1088.36 59.7898 1085.65 58.9224C1084.26 58.477 1082.85 58.0254 1081.42 57.5298C1077.28 56.0978 1073.12 54.3441 1069.42 51.4019L1069.41 51.3876L1069.39 51.3727C1066.52 48.9393 1064.34 45.9339 1062.43 42.8915C1061.63 41.6206 1060.89 40.38 1060.17 39.1638C1059.12 37.3764 1058.09 35.6417 1056.93 33.9408C1047.28 19.893 1031.81 13.8137 1014.7 13.126C997.571 12.4377 978.95 17.1712 963.362 24.5687L963.354 24.5727C909.802 49.5839 865.944 95.4836 843.16 151.033L843.157 151.041C834.56 171.656 828.858 193.273 823.143 214.938C822.659 216.772 822.175 218.607 821.689 220.442C815.476 243.901 808.963 267.307 798.448 289.175L798.444 289.182C787.92 310.775 774.184 330.336 759.368 348.297C723.357 392.592 680.821 430.743 633.244 461.061L633.241 461.063C621.576 468.462 606.035 469.831 588.973 467.466C571.881 465.096 553.044 458.95 534.586 451.051C497.676 435.255 462.011 412.332 444.396 398.054L444.392 398.051C423.819 381.239 413.217 369.183 403.545 357.164C401.916 355.14 400.315 353.119 398.699 351.08C390.745 341.04 382.42 330.531 368.488 316.762L368.484 316.758C358.951 307.267 350.108 301.535 341.576 298.478C333.056 295.424 324.757 295.004 316.256 296.269C307.729 297.537 299.007 300.499 289.647 304.216C285.775 305.754 281.755 307.438 277.597 309.18C271.815 311.602 265.766 314.136 259.481 316.542C251.882 319.53 243.144 320.9 234.043 321.594C227.243 322.113 220.162 322.258 213.155 322.402C210.791 322.451 208.436 322.499 206.103 322.562C196.81 322.811 187.837 323.283 179.807 324.845C171.777 326.407 164.808 329.037 159.448 333.516C150.739 340.924 147.065 347.48 146.339 353.403C145.612 359.334 147.796 364.978 151.568 370.663C154.77 375.489 159.002 380.184 163.335 384.991C164.125 385.869 164.919 386.75 165.711 387.636C170.785 393.315 175.757 399.201 178.727 405.458L178.733 405.471L178.739 405.483C186.349 422.302 181.763 439.411 177.467 455.439L177.229 456.324C172.806 472.839 168.966 488.097 177.293 502.085C183.956 512.99 196.014 517.096 209.288 520.904C210.252 521.181 211.222 521.456 212.197 521.732C224.426 525.197 237.313 528.849 246.21 538.22Z" stroke="#111315" stroke-width="3"/>
</g>
<g filter="url(#filter1_di_107_2)">
<path d="M256.681 481.756C268.391 501.173 298.941 496.059 314.422 512.568C332.641 532.124 321.866 572.16 345.382 584.192C352.466 587.482 360.685 587.084 367.769 590.374C387.251 599.422 387.356 630.756 405.662 642.587C424.4 654.396 448.386 638.245 470.137 639.916C486.656 640.933 505.333 651.382 517.843 640.33C527.859 631.669 527.869 612.593 540.684 608.338C562.049 601.398 572.404 648.586 593.336 641.668C601.886 638.982 605.331 628.823 612.914 623.914C628.493 613.621 648.381 631.733 666.407 627.68C689.171 622.944 702.231 585.521 724.247 593.084C733.493 596.27 738.72 606.463 745.926 612.472C763.941 627.496 790.828 618.018 808.818 603.52C816.773 597.23 826.417 589.95 835.272 594.063C840.153 596.551 843.013 602.317 846.677 606.682C861.414 625.952 895.115 623.41 907.61 602.366C913.631 591.628 914.771 578.401 922.583 568.939C933.281 556.157 952.355 556.142 968.381 555.819C984.84 555.476 1004.18 551.813 1010.85 536.048C1014.35 527.248 1013 516.413 1017.84 508.457C1025.53 496.276 1044.65 497.166 1053.66 485.375C1061.45 475.459 1058.18 460.629 1061.07 447.772C1066.51 423.891 1093.68 411.219 1099.55 387.317C1103.59 371.224 1096.74 353.843 1099.9 337.339C1101.68 328.623 1106.09 320.688 1108.32 312.405C1114.68 289.841 1104.93 265.787 1096.17 244.411C1083.08 213.706 1070.45 183.433 1057.37 152.728C1049.64 134.935 1040.95 115.371 1023.28 108.052C1016.65 105.194 1009.24 104.191 1003.39 99.4782C998.882 95.609 996.455 89.822 993.203 84.9835C976.491 60.3587 939.803 63.9534 913.491 76.5832C868.492 97.8398 831.66 136.868 812.538 184.122C796.903 222.124 792.718 264.112 775.291 300.837C766.568 318.973 755.168 335.423 742.841 350.554C712.869 387.887 677.463 420.034 637.858 445.571C600.355 469.644 510.822 416.3 481.566 392.283C447.347 363.965 446.365 351.749 418.223 323.591C385.984 291.089 362.08 309.052 325.859 323.07C301.156 332.897 260.769 321.683 241.974 337.582C212.339 363.09 248.191 379.52 257.779 399.948C270.307 427.955 242.132 457.026 256.681 481.756Z" fill="#1A1D1F"/>
<path d="M315.513 511.536L315.517 511.539C320.296 516.669 323.124 523.089 325.077 529.897C326.666 535.439 327.701 541.341 328.708 547.087C328.934 548.377 329.159 549.66 329.388 550.928C331.93 564.987 335.047 577.199 346.04 582.839C349.378 584.385 353.01 585.079 356.857 585.806L356.941 585.822C360.711 586.534 364.691 587.286 368.401 589.01C378.722 593.803 383.812 604.462 388.518 614.809C388.7 615.208 388.881 615.607 389.061 616.005C393.67 626.157 398.093 635.901 406.467 641.317C415.294 646.876 425.437 645.929 436.463 643.583C438.75 643.097 441.12 642.539 443.515 641.975C446.754 641.213 450.042 640.439 453.24 639.814C458.891 638.71 464.616 637.986 470.244 638.417C474.496 638.68 478.854 639.545 483.129 640.497C484.137 640.721 485.139 640.95 486.135 641.177C489.402 641.922 492.601 642.652 495.739 643.166C503.927 644.505 511.129 644.263 516.856 639.203L516.862 639.198L516.868 639.192C519.169 637.202 520.943 634.572 522.511 631.579C523.644 629.416 524.631 627.145 525.637 624.83C526.035 623.915 526.435 622.994 526.849 622.069C529.691 615.717 533.122 609.267 540.218 606.911L540.228 606.908C546.198 604.969 551.359 606.877 555.898 610.401C560.376 613.877 564.444 619.072 568.35 624.064L568.371 624.09C572.336 629.157 576.138 634.016 580.208 637.219C584.225 640.379 588.281 641.758 592.872 640.24L592.882 640.237L592.893 640.233C596.707 639.036 599.461 636.153 602.336 632.668C602.728 632.194 603.122 631.706 603.522 631.212C605.971 628.188 608.63 624.904 612.1 622.655C620.534 617.086 630.06 619.299 639.173 622.016C640.233 622.332 641.288 622.656 642.34 622.978C645.903 624.07 649.421 625.149 652.943 625.882C657.479 626.827 661.867 627.162 666.084 626.214L666.096 626.211L666.108 626.209C671.446 625.098 676.302 622.051 680.987 618.067C684.561 615.027 687.942 611.528 691.33 608.021C692.399 606.915 693.468 605.808 694.545 604.715C698.976 600.213 703.523 595.946 708.418 593.309C713.381 590.636 718.759 589.609 724.735 591.662L724.736 591.662C729.732 593.383 733.562 596.97 736.958 600.704C737.978 601.825 738.952 602.95 739.907 604.052C742.214 606.715 744.41 609.251 746.884 611.315C755.447 618.455 766.167 619.835 777.086 617.594C788.023 615.349 799.029 609.484 807.884 602.349L807.895 602.34C811.855 599.209 816.387 595.704 821.084 593.526C825.802 591.338 830.92 590.383 835.904 592.698L835.929 592.71L835.953 592.722C838.692 594.119 840.791 596.395 842.612 598.743C843.37 599.719 844.103 600.739 844.815 601.731C844.96 601.934 845.105 602.135 845.249 602.335C846.107 603.526 846.945 604.665 847.822 605.711L847.844 605.737L847.865 605.764C854.867 614.919 866.443 618.971 877.881 618.143C889.314 617.314 900.364 611.625 906.315 601.616C908.756 597.258 910.367 592.488 912.024 587.585C912.349 586.623 912.676 585.656 913.011 584.686C915.03 578.84 917.339 572.94 921.432 567.982L921.439 567.974C927.089 561.224 934.901 557.912 943.193 556.234C950.993 554.654 959.377 554.491 966.992 554.343C967.45 554.334 967.904 554.325 968.356 554.316C976.51 554.146 985.266 553.153 992.763 550.311C1000.23 547.478 1006.34 542.859 1009.46 535.479C1010.92 531.809 1011.5 527.765 1012.1 523.529C1012.19 522.93 1012.27 522.327 1012.36 521.721C1013.07 516.925 1013.97 511.945 1016.57 507.676L1016.57 507.666L1016.58 507.655C1020.73 501.089 1027.92 498.117 1034.7 495.376C1034.83 495.324 1034.96 495.272 1035.09 495.221C1041.91 492.465 1048.34 489.867 1052.47 484.462L1052.48 484.454L1052.48 484.446C1056.09 479.86 1057.2 474.063 1057.71 467.562C1057.85 465.769 1057.95 463.908 1058.05 462.015C1058.3 457.196 1058.55 452.159 1059.61 447.445L1059.62 447.442C1062.43 435.055 1070.88 425.634 1079.04 416.548L1079.07 416.511C1087.32 407.324 1095.27 398.466 1098.09 386.962L1098.09 386.953C1100.04 379.197 1099.38 371.083 1098.57 362.632C1098.53 362.265 1098.5 361.898 1098.46 361.53C1097.68 353.508 1096.88 345.194 1098.43 337.059L1098.44 337.051L1098.44 337.042C1099.35 332.545 1100.95 328.276 1102.55 324.165C1102.74 323.676 1102.93 323.189 1103.12 322.704C1104.54 319.082 1105.92 315.581 1106.88 312.017L1106.88 312.008L1106.88 312C1109.97 301.053 1109.16 289.678 1106.46 278.316C1103.75 266.946 1099.17 255.698 1094.79 244.996C1088.25 229.648 1081.82 214.409 1075.4 199.172L1075.39 199.159C1068.96 183.916 1062.54 168.676 1056 153.328C1052.12 144.415 1048.07 135.2 1042.81 127.3C1037.56 119.414 1031.18 112.949 1022.71 109.442L1022.7 109.438L1022.69 109.434C1020.54 108.507 1018.36 107.799 1016.1 107.067C1014.94 106.689 1013.76 106.304 1012.55 105.88C1009.08 104.664 1005.57 103.167 1002.45 100.652L1002.43 100.637L1002.42 100.622C999.989 98.5396 998.16 95.9734 996.555 93.3935C995.879 92.3066 995.263 91.2536 994.66 90.2244C993.779 88.7199 992.928 87.2661 991.964 85.8309C983.951 74.0262 971.117 68.9024 956.881 68.3146C942.625 67.7261 927.119 71.7056 914.133 77.9389L914.125 77.9428C869.471 99.0362 832.906 137.778 813.925 184.684L813.921 184.692C806.757 202.104 802.009 220.365 797.245 238.685C796.842 240.234 796.439 241.785 796.034 243.335C790.857 263.167 785.424 282.973 776.642 301.48L776.639 301.487C767.849 319.761 756.376 336.309 744.003 351.498C713.933 388.953 678.407 421.208 638.664 446.835L638.661 446.837C628.848 453.135 615.795 454.279 601.517 452.266C587.21 450.249 571.452 445.034 556.022 438.341C525.167 424.957 495.351 405.544 480.616 393.448L480.611 393.444C463.407 379.206 454.536 368.994 446.445 358.817C445.082 357.103 443.743 355.393 442.392 353.667C435.745 345.174 428.796 336.295 417.165 324.657L417.161 324.653C409.213 316.64 401.854 311.814 394.771 309.24C387.7 306.671 380.814 306.312 373.751 307.372C366.661 308.436 359.4 310.926 351.59 314.062C348.368 315.356 345.014 316.777 341.543 318.247C336.709 320.295 331.647 322.439 326.4 324.47C320.02 327.007 312.693 328.163 305.083 328.746C299.396 329.182 293.472 329.302 287.618 329.42C285.645 329.46 283.681 329.5 281.736 329.551C273.976 329.757 266.502 330.152 259.819 331.464C253.14 332.775 247.369 334.982 242.941 338.726C235.696 344.963 232.673 350.457 232.079 355.391C231.483 360.333 233.28 365.053 236.419 369.841C239.084 373.907 242.607 377.864 246.228 381.931C246.89 382.675 247.555 383.422 248.219 384.174C252.457 388.977 256.634 393.979 259.133 399.304L259.139 399.316L259.144 399.329C265.54 413.625 261.699 428.156 258.124 441.687L257.919 442.462C254.229 456.438 251.066 469.242 257.966 480.979C263.481 490.12 273.461 493.578 284.558 496.809C285.366 497.044 286.18 497.277 286.998 497.512C297.2 500.444 308.031 503.556 315.513 511.536Z" stroke="#111315" stroke-width="3"/>
</g>
<g filter="url(#filter2_di_107_2)">
<path d="M329.296 460.102C338.992 476.073 364.303 471.857 377.124 485.435C392.213 501.519 383.276 534.46 402.755 544.352C408.623 547.057 415.433 546.727 421.301 549.432C437.438 556.871 437.517 582.649 452.679 592.377C468.2 602.087 488.076 588.794 506.096 590.162C519.781 590.994 535.252 599.586 545.618 590.489C553.918 583.361 553.932 567.667 564.55 564.163C582.252 558.447 590.818 597.267 608.161 591.569C615.245 589.357 618.103 580.998 624.386 576.957C637.295 568.485 653.767 583.38 668.702 580.041C687.562 576.137 698.392 545.346 716.629 551.562C724.289 554.18 728.616 562.565 734.585 567.507C749.506 579.862 771.783 572.056 786.691 560.124C793.283 554.947 801.275 548.955 808.61 552.336C812.653 554.382 815.02 559.125 818.055 562.714C830.26 578.564 858.18 576.464 868.537 559.147C873.528 550.311 874.476 539.429 880.951 531.642C889.817 521.124 905.619 521.105 918.896 520.835C932.532 520.548 948.559 517.53 954.082 504.558C956.99 497.317 955.871 488.403 959.887 481.857C966.262 471.833 982.098 472.56 989.564 462.857C996.022 454.697 993.319 442.497 995.718 431.918C1000.22 412.27 1022.74 401.837 1027.61 382.171C1030.96 368.93 1025.29 354.632 1027.91 341.053C1029.39 333.882 1033.05 327.353 1034.9 320.537C1040.17 301.973 1032.1 282.186 1024.84 264.602C1014.01 239.344 1003.56 214.442 992.725 189.184C986.321 174.548 979.134 158.455 964.497 152.439C959.005 150.089 952.862 149.266 948.019 145.39C944.284 142.209 942.275 137.448 939.582 133.468C925.743 113.214 895.347 116.182 873.546 126.58C836.26 144.08 805.736 176.2 789.882 215.081C776.919 246.35 773.441 280.895 758.994 311.114C751.762 326.037 742.313 339.573 732.097 352.025C707.257 382.748 677.915 409.205 645.097 430.226C614.021 450.041 539.86 406.18 515.628 386.429C487.287 363.141 486.476 353.092 463.169 329.933C436.468 303.203 416.66 317.988 386.649 329.531C366.18 337.622 332.724 328.408 317.149 341.493C292.59 362.487 322.289 375.994 330.226 392.798C340.598 415.836 317.249 439.761 329.296 460.102Z" fill="url(#paint1_linear_107_2)"/>
<path d="M378.215 484.403L378.212 484.399C371.964 477.782 362.924 475.207 354.488 472.803C353.806 472.609 353.128 472.416 352.456 472.221C343.251 469.564 335.085 466.741 330.578 459.322C324.933 449.782 327.513 439.366 330.579 427.845L330.757 427.175C333.717 416.067 336.926 404.025 331.59 392.175L331.585 392.163L331.579 392.15C329.491 387.731 326.008 383.591 322.499 379.642C321.947 379.022 321.396 378.406 320.847 377.794C317.848 374.448 314.946 371.211 312.75 367.884C310.167 363.97 308.717 360.154 309.201 356.181C309.684 352.214 312.136 347.749 318.115 342.638C321.739 339.597 326.472 337.793 331.982 336.717C337.497 335.64 343.671 335.313 350.099 335.142C351.706 335.099 353.332 335.066 354.964 335.032C359.816 334.933 364.734 334.833 369.453 334.472C375.767 333.99 381.865 333.034 387.185 330.933C391.531 329.261 395.737 327.491 399.749 325.802C402.625 324.591 405.402 323.422 408.06 322.362C414.527 319.781 420.521 317.739 426.366 316.866C432.184 315.997 437.847 316.289 443.659 318.385C449.483 320.485 455.548 324.429 462.11 330.999L462.114 331.003C471.736 340.563 477.48 347.853 482.984 354.837C484.104 356.257 485.213 357.665 486.343 359.077C493.052 367.458 500.412 375.871 514.678 387.594L514.683 387.598C526.906 397.56 551.622 413.535 577.203 424.547C589.995 430.053 603.071 434.349 614.954 436.008C626.808 437.664 637.692 436.725 645.897 431.494L645.899 431.492C678.856 410.383 708.316 383.818 733.255 352.974C743.518 340.464 753.041 326.829 760.339 311.768L760.343 311.761C767.635 296.507 772.147 280.187 776.441 263.871C776.777 262.596 777.111 261.322 777.445 260.048C781.397 244.971 785.331 229.964 791.263 215.655L791.267 215.647C806.978 177.114 837.234 145.28 874.176 127.941L874.184 127.937C884.916 122.819 897.723 119.553 909.485 120.031C921.228 120.509 931.771 124.699 938.345 134.319C939.141 135.496 939.837 136.677 940.561 137.906C941.061 138.753 941.573 139.623 942.142 140.532C943.476 142.662 945.008 144.799 947.048 146.538L947.066 146.553L947.084 146.567C949.703 148.663 952.639 149.905 955.52 150.907C956.534 151.26 957.521 151.578 958.487 151.889C960.348 152.489 962.136 153.064 963.907 153.822L963.917 153.826L963.927 153.83C970.877 156.687 976.126 161.961 980.456 168.421C984.795 174.895 988.143 182.452 991.352 189.787C996.765 202.411 1002.09 214.947 1007.41 227.486L1007.41 227.494C1012.73 240.028 1018.05 252.565 1023.46 265.19C1027.1 273.996 1030.88 283.229 1033.11 292.557C1035.34 301.878 1036 311.184 1033.46 320.129L1033.45 320.138L1033.45 320.147C1032.66 323.064 1031.53 325.929 1030.35 328.911C1030.19 329.31 1030.03 329.71 1029.87 330.114C1028.54 333.496 1027.21 337.028 1026.45 340.754L1026.45 340.763L1026.45 340.772C1025.14 347.505 1025.81 354.381 1026.46 360.971C1026.49 361.278 1026.52 361.584 1026.55 361.889C1027.22 368.847 1027.76 375.476 1026.15 381.804L1026.15 381.813C1023.83 391.212 1017.28 398.459 1010.42 406.04L1010.42 406.043L1010.42 406.043C1003.67 413.51 996.614 421.314 994.259 431.585L994.258 431.589C993.373 435.492 993.155 439.674 992.948 443.647C992.867 445.199 992.788 446.72 992.671 448.179C992.244 453.517 991.327 458.216 988.393 461.924L988.387 461.932L988.38 461.94C985.002 466.331 979.731 468.446 974.047 470.727L973.764 470.841C968.157 473.092 962.115 475.564 958.627 481.051L958.62 481.061L958.614 481.071C956.427 484.636 955.674 488.785 955.089 492.73C955.014 493.231 954.943 493.727 954.872 494.22C954.37 497.708 953.896 500.999 952.7 503.985C950.147 509.968 945.158 513.73 939.009 516.046C932.836 518.372 925.614 519.191 918.871 519.333L378.215 484.403ZM378.215 484.403C382.213 488.664 384.571 493.991 386.193 499.613C387.513 504.187 388.371 509.061 389.204 513.788C389.391 514.848 389.576 515.901 389.766 516.941C391.87 528.522 394.437 538.426 403.409 542.998C406.14 544.252 409.116 544.817 412.307 545.415L412.39 545.43C415.504 546.014 418.827 546.636 421.929 548.066C430.578 552.053 434.827 560.919 438.716 569.415C438.862 569.733 439.007 570.051 439.152 570.369C442.98 578.746 446.611 586.694 453.481 591.105C460.701 595.618 469.015 594.859 478.146 592.927C480.027 592.529 481.988 592.07 483.973 591.606C486.664 590.976 489.401 590.336 492.05 589.821C496.74 588.909 501.508 588.308 506.202 588.663C509.744 588.879 513.37 589.594 516.912 590.375C517.751 590.56 518.583 590.749 519.409 590.935C522.114 591.547 524.754 592.145 527.345 592.565C534.11 593.662 539.979 593.445 544.635 589.359L544.642 589.353M378.215 484.403L544.642 589.353M544.642 589.353L544.648 589.348M544.642 589.353L544.648 589.348M544.648 589.348C546.52 587.741 547.971 585.609 549.263 583.161C550.197 581.39 551.01 579.535 551.842 577.634C552.172 576.879 552.506 576.117 552.852 575.351C555.207 570.126 558.09 564.714 564.087 562.735L564.096 562.732M544.648 589.348L564.096 562.732M564.096 562.732C569.145 561.102 573.506 562.712 577.307 565.642C581.046 568.524 584.435 572.825 587.665 576.924L587.667 576.926C590.962 581.109 594.095 585.085 597.441 587.699C600.727 590.266 604.002 591.355 607.7 590.14L607.711 590.137M564.096 562.732L607.711 590.137M607.711 590.137L607.721 590.133M607.711 590.137L607.721 590.133M607.721 590.133C610.804 589.171 613.045 586.855 615.426 583.988C615.748 583.601 616.073 583.202 616.403 582.796C618.43 580.31 620.664 577.571 623.576 575.696C630.672 571.042 638.672 572.902 646.211 575.132C647.094 575.393 647.971 575.66 648.844 575.925C651.793 576.822 654.693 577.704 657.598 578.304C661.338 579.076 664.935 579.344 668.381 578.574L668.393 578.571M607.721 590.133L668.393 578.571M668.393 578.571L668.404 578.569M668.393 578.571L668.404 578.569M668.404 578.569C672.768 577.665 676.754 575.187 680.621 571.921C683.573 569.428 686.362 566.561 689.168 563.677C690.055 562.766 690.944 561.852 691.84 560.948C695.513 557.243 699.305 553.705 703.398 551.515C707.558 549.288 712.086 548.425 717.114 550.139L717.116 550.139M668.404 578.569L717.116 550.139M717.116 550.139C721.317 551.575 724.525 554.565 727.344 557.643C728.2 558.578 729.012 559.509 729.806 560.419C731.71 562.602 733.507 564.663 735.539 566.346C742.555 572.155 751.352 573.287 760.349 571.45C769.364 569.609 778.447 564.803 785.761 558.95L785.772 558.941M717.116 550.139L785.772 558.941M785.772 558.941C789.051 556.366 792.828 553.462 796.751 551.655C800.695 549.838 805.017 549.024 809.238 550.97L809.263 550.981M785.772 558.941L809.263 550.981M809.263 550.981L809.287 550.993M809.263 550.981L809.287 550.993M809.287 550.993C811.607 552.167 813.374 554.077 814.889 556.016C815.52 556.824 816.13 557.667 816.72 558.483C816.84 558.65 816.96 558.815 817.078 558.979C817.788 559.958 818.477 560.888 819.197 561.74L819.219 561.766M809.287 550.993L819.219 561.766M819.219 561.766L819.24 561.793M819.219 561.766L819.24 561.793M819.24 561.793C824.974 569.239 834.472 572.549 843.886 571.869C853.294 571.189 862.364 566.539 867.245 558.393C869.253 554.831 870.58 550.936 871.953 546.903C872.224 546.11 872.495 545.311 872.775 544.509C874.45 539.697 876.378 534.801 879.803 530.681L879.81 530.673M819.24 561.793L879.81 530.673M879.81 530.673C884.544 525.056 891.081 522.311 897.98 520.922M879.81 530.673L897.98 520.922M897.98 520.922C904.465 519.616 911.431 519.479 917.736 519.355M897.98 520.922L917.736 519.355M917.736 519.355C918.116 519.348 918.495 519.34 918.87 519.333L917.736 519.355Z" stroke="#111315" stroke-width="3"/>
</g>
<g filter="url(#filter3_di_107_2)">
<path d="M406.284 438.237C413.768 450.772 433.278 447.481 443.169 458.141C454.81 470.768 447.941 496.603 462.963 504.375C467.488 506.501 472.737 506.247 477.262 508.373C489.706 514.219 489.783 534.441 501.477 542.082C513.447 549.709 528.761 539.294 542.652 540.38C553.202 541.041 565.133 547.791 573.119 540.662C579.513 535.076 579.514 522.764 587.697 520.023C601.339 515.551 607.966 546.008 621.332 541.55C626.791 539.82 628.989 533.264 633.83 530.099C643.776 523.461 656.482 535.157 667.993 532.547C682.53 529.497 690.859 505.35 704.921 510.238C710.828 512.297 714.168 518.877 718.772 522.758C730.282 532.46 747.45 526.351 758.935 517.001C764.013 512.944 770.17 508.249 775.826 510.906C778.944 512.514 780.772 516.236 783.113 519.054C792.531 531.495 814.053 529.866 822.026 516.289C825.868 509.361 826.592 500.825 831.578 494.721C838.407 486.475 850.588 486.471 860.823 486.268C871.334 486.052 883.686 483.695 887.936 473.522C890.173 467.844 889.306 460.851 892.397 455.718C897.305 447.859 909.513 448.44 915.262 440.833C920.235 434.436 918.145 424.864 919.987 416.568C923.448 401.157 940.8 392.988 944.538 377.564C947.117 367.18 942.738 355.96 944.751 345.309C945.883 339.685 948.699 334.566 950.12 329.22C954.173 314.661 947.939 299.134 942.336 285.335C933.972 265.514 925.896 245.973 917.532 226.152C912.587 214.667 907.036 202.038 895.75 197.308C891.514 195.462 886.778 194.812 883.043 191.769C880.162 189.27 878.61 185.534 876.532 182.411C865.852 166.513 842.422 168.821 825.623 176.963C796.891 190.667 773.381 215.843 761.183 246.333C751.21 270.853 748.55 297.95 737.432 321.646C731.866 333.348 724.59 343.96 716.723 353.721C697.593 377.806 674.991 398.541 649.706 415.009C625.762 430.532 568.568 396.076 549.876 380.567C528.014 362.28 527.384 354.396 509.403 336.214C488.804 315.227 473.543 326.812 450.416 335.848C434.642 342.181 408.846 334.931 396.848 345.185C377.93 361.638 400.831 372.253 406.96 385.44C414.97 403.519 396.985 422.272 406.284 438.237Z" fill="#111315"/>
<path d="M444.266 457.114L444.269 457.118C447.401 460.516 449.239 464.748 450.5 469.182C451.525 472.788 452.193 476.632 452.838 480.342C452.982 481.172 453.125 481.995 453.271 482.807C454.905 491.92 456.878 499.517 463.627 503.026C465.685 503.988 467.933 504.426 470.397 504.898L470.478 504.913C472.868 505.371 475.467 505.868 477.9 507.011C484.701 510.206 488.023 517.288 491.015 523.931C491.121 524.167 491.227 524.403 491.333 524.637C494.306 531.249 497.075 537.406 502.289 540.817C507.729 544.279 514.007 543.722 521.036 542.214C522.466 541.907 523.973 541.55 525.503 541.187C527.588 540.692 529.717 540.187 531.758 539.785C535.385 539.071 539.096 538.595 542.762 538.88C545.522 539.054 548.34 539.623 551.073 540.239C551.724 540.385 552.368 540.534 553.007 540.682C555.09 541.163 557.111 541.63 559.096 541.959C564.283 542.82 568.663 542.632 572.127 539.54L572.133 539.535L572.139 539.529C573.535 538.309 574.63 536.679 575.616 534.776C576.33 533.398 576.948 531.96 577.586 530.474C577.842 529.88 578.1 529.278 578.37 528.669C580.176 524.585 582.444 520.2 587.227 518.597L587.236 518.594C591.283 517.268 594.768 518.6 597.752 520.941C600.669 523.23 603.305 526.634 605.785 529.836L605.801 529.856C608.351 533.15 610.744 536.236 613.288 538.259C615.772 540.235 618.172 541.022 620.864 540.124L620.875 540.12L620.886 540.117C623.152 539.399 624.821 537.661 626.656 535.412C626.9 535.113 627.148 534.803 627.402 534.487C628.959 532.541 630.717 530.346 633.01 528.844C638.632 525.095 644.961 526.623 650.76 528.373C651.447 528.58 652.127 528.791 652.802 529C655.073 529.705 657.288 530.392 659.51 530.861C662.367 531.464 665.083 531.667 667.668 531.081L667.68 531.078L667.692 531.076C670.97 530.388 673.987 528.49 676.947 525.947C679.207 524.005 681.339 521.775 683.498 519.517C684.183 518.8 684.871 518.081 685.567 517.367C688.395 514.463 691.348 511.656 694.553 509.912C697.827 508.131 701.423 507.43 705.415 508.818L705.416 508.818C708.743 509.978 711.266 512.382 713.447 514.805C714.12 515.553 714.754 516.293 715.37 517.012C716.831 518.716 718.191 520.302 719.737 521.605C725.046 526.081 731.707 526.971 738.565 525.552C745.444 524.128 752.392 520.396 757.994 515.835L758.005 515.826C760.527 513.811 763.468 511.51 766.535 510.074C769.623 508.628 773.075 507.952 776.464 509.544L776.489 509.556L776.513 509.569C778.371 510.527 779.771 512.074 780.947 513.606C781.438 514.245 781.913 514.913 782.368 515.553C782.461 515.684 782.552 515.813 782.643 515.94C783.191 516.708 783.717 517.43 784.264 518.089L784.286 518.115L784.306 518.142C788.651 523.881 795.851 526.45 803.008 525.929C810.159 525.409 817.034 521.82 820.728 515.544C822.258 512.781 823.267 509.76 824.323 506.599C824.531 505.975 824.741 505.346 824.957 504.712C826.246 500.936 827.744 497.048 830.422 493.77L830.429 493.762C834.143 489.277 839.266 487.1 844.63 486.006C849.662 484.978 855.063 484.875 859.915 484.783C860.211 484.777 860.505 484.771 860.797 484.766C865.976 484.659 871.496 484.024 876.198 482.225C880.872 480.436 884.629 477.544 886.55 472.959C887.455 470.655 887.813 468.114 888.199 465.375C888.253 464.989 888.308 464.598 888.365 464.204C888.813 461.112 889.397 457.799 891.117 454.943L891.124 454.933L891.13 454.923C893.882 450.515 898.649 448.545 902.955 446.789L903.129 446.718C907.544 444.918 911.526 443.294 914.071 439.927L914.077 439.919L914.083 439.911C916.281 437.084 916.981 433.479 917.306 429.301C917.394 428.174 917.454 426.992 917.515 425.781C917.673 422.656 917.84 419.333 918.526 416.245L918.527 416.241C920.354 408.106 925.836 401.935 931.019 396.099L931.043 396.072C936.333 390.118 941.319 384.496 943.083 377.213L943.086 377.205C944.304 372.3 943.89 367.15 943.367 361.685C943.343 361.442 943.32 361.197 943.296 360.952C942.798 355.793 942.274 350.359 943.281 345.034L943.282 345.025L943.284 345.016C943.878 342.066 944.908 339.274 945.932 336.621C946.054 336.304 946.176 335.99 946.297 335.677C947.205 333.337 948.07 331.107 948.674 328.837L948.676 328.828L948.679 328.82C950.613 321.872 950.111 314.627 948.393 307.343C946.672 300.051 943.761 292.829 940.954 285.916C936.772 276.006 932.663 266.167 928.555 256.331L928.553 256.329C924.444 246.489 920.336 236.653 916.156 226.748C913.676 220.988 911.101 215.083 907.77 210.029C904.447 204.987 900.443 200.906 895.17 198.696L895.16 198.692L895.15 198.687C893.799 198.098 892.447 197.654 891.023 197.187C890.274 196.941 889.505 196.688 888.706 196.405C886.47 195.611 884.163 194.62 882.097 192.937L882.08 192.922L882.062 192.907C880.45 191.509 879.248 189.798 878.213 188.117C877.763 187.388 877.365 186.7 876.98 186.035C876.426 185.079 875.9 184.17 875.288 183.251C870.288 175.811 862.276 172.552 853.304 172.174C844.31 171.794 834.499 174.328 826.27 178.316L826.261 178.32C797.877 191.858 774.631 216.745 762.572 246.89L762.569 246.898C758.013 258.098 754.995 269.848 751.956 281.675C751.7 282.674 751.443 283.672 751.186 284.671C747.886 297.466 744.412 310.292 738.785 322.283L738.782 322.29C733.151 334.129 725.803 344.84 717.889 354.659C698.663 378.865 675.942 399.71 650.517 416.269L650.515 416.271C644.089 420.436 635.596 421.157 626.419 419.845C617.214 418.529 607.098 415.138 597.219 410.803C577.463 402.134 558.373 389.57 548.92 381.727L548.916 381.723C537.89 372.5 532.196 365.878 527.008 359.285C526.135 358.175 525.278 357.069 524.414 355.953C520.167 350.472 515.747 344.765 508.339 337.274L508.335 337.27C503.296 332.137 498.66 329.073 494.229 327.444C489.813 325.82 485.51 325.589 481.075 326.259C476.613 326.933 472.026 328.518 467.049 330.535C465.017 331.359 462.881 332.272 460.664 333.22C457.565 334.545 454.309 335.938 450.962 337.245C446.812 338.91 442.07 339.66 437.188 340.035C433.54 340.316 429.733 340.392 425.991 340.466C424.734 340.491 423.485 340.516 422.251 340.549C417.298 340.679 412.565 340.931 408.347 341.765C404.133 342.599 400.551 343.994 397.821 346.324C393.256 350.295 391.429 353.728 391.071 356.735C390.713 359.751 391.792 362.672 393.766 365.714C395.447 368.304 397.667 370.824 399.982 373.452C400.406 373.933 400.833 374.418 401.261 374.908C403.967 378.006 406.684 381.287 408.317 384.801L408.323 384.813L408.328 384.826C412.492 394.225 410.001 403.762 407.733 412.448L407.587 413.008C405.224 422.066 403.291 430.106 407.572 437.465C410.977 443.164 417.142 445.356 424.25 447.45C424.771 447.603 425.298 447.756 425.829 447.911C432.316 449.796 439.379 451.848 444.266 457.114Z" stroke="#1A1E22" stroke-width="3"/>
</g>
<g filter="url(#filter4_di_107_2)">
<path d="M488.637 412.632C493.799 421.346 507.244 419.065 514.064 426.477C522.09 435.256 517.362 453.211 527.718 458.617C530.837 460.096 534.454 459.921 537.574 461.4C546.152 465.466 546.21 479.522 554.272 484.836C562.524 490.141 573.075 482.906 582.649 483.664C589.921 484.127 598.145 488.822 603.647 483.869C608.052 479.988 608.05 471.431 613.689 469.528C623.09 466.424 627.665 487.595 636.876 484.5C640.638 483.299 642.151 478.743 645.486 476.544C652.339 471.934 661.1 480.066 669.032 478.256C679.05 476.14 684.784 459.359 694.477 462.761C698.549 464.193 700.853 468.768 704.027 471.466C711.962 478.213 723.792 473.972 731.705 467.477C735.204 464.658 739.446 461.397 743.345 463.245C745.495 464.363 746.755 466.951 748.37 468.91C754.864 477.56 769.696 476.434 775.188 466.999C777.834 462.185 778.331 456.253 781.766 452.011C786.47 446.282 794.865 446.283 801.919 446.145C809.163 445.998 817.676 444.363 820.602 437.294C822.142 433.348 821.542 428.487 823.672 424.92C827.052 419.459 835.466 419.867 839.426 414.581C842.852 410.136 841.409 403.483 842.676 397.717C845.058 387.007 857.015 381.334 859.587 370.615C861.362 363.398 858.34 355.598 859.725 348.196C860.504 344.288 862.443 340.73 863.421 337.015C866.211 326.897 861.91 316.103 858.045 306.511C852.275 292.732 846.704 279.148 840.934 265.369C837.523 257.385 833.694 248.606 825.915 245.316C822.995 244.031 819.731 243.578 817.155 241.461C815.169 239.724 814.099 237.127 812.666 234.955C805.301 223.903 789.154 225.5 777.577 231.155C757.779 240.671 741.583 258.163 733.184 279.352C726.317 296.391 724.49 315.224 716.834 331.69C713.001 339.822 707.99 347.196 702.57 353.978C689.392 370.712 673.82 385.118 656.398 396.557C639.9 407.339 600.472 383.375 587.586 372.59C572.514 359.873 572.077 354.393 559.68 341.751C545.478 327.159 534.963 335.206 519.026 341.48C508.157 345.878 490.376 340.831 482.109 347.955C469.075 359.385 484.862 366.769 489.089 375.937C494.614 388.505 482.224 401.533 488.637 412.632Z" fill="url(#paint2_linear_107_2)"/>
<path d="M515.171 425.465L515.167 425.461C511.705 421.698 506.709 420.234 502.26 418.93C501.888 418.821 501.52 418.713 501.156 418.605C496.243 417.143 492.177 415.658 489.932 411.874C487.086 406.942 488.348 401.54 489.983 395.21C490.02 395.065 490.058 394.92 490.096 394.774C491.648 388.773 493.398 382.01 490.463 375.333L490.457 375.321L490.452 375.308C489.295 372.8 487.38 370.475 485.516 368.322C485.218 367.978 484.922 367.639 484.628 367.303C483.032 365.475 481.527 363.752 480.387 361.982C479.054 359.911 478.367 357.986 478.596 356.035C478.825 354.092 480 351.801 483.093 349.087C484.89 347.54 487.271 346.596 490.13 346.027C492.993 345.457 496.22 345.283 499.631 345.194C500.474 345.172 501.331 345.156 502.194 345.139C504.777 345.088 507.42 345.036 509.95 344.841C513.333 344.579 516.657 344.055 519.582 342.873C521.886 341.966 524.151 340.99 526.298 340.065C527.826 339.407 529.293 338.775 530.672 338.212C534.092 336.815 537.211 335.732 540.229 335.274C543.218 334.819 546.1 334.979 549.055 336.076C552.026 337.179 555.165 339.263 558.605 342.797L558.609 342.801C563.695 347.988 566.726 351.933 569.653 355.742C570.25 356.519 570.843 357.29 571.447 358.065C575.04 362.669 578.988 367.298 586.619 373.736L586.623 373.74C593.173 379.222 606.371 387.984 620.03 394.033C626.861 397.058 633.879 399.436 640.283 400.362C646.66 401.284 652.652 400.797 657.218 397.812L657.221 397.81C674.782 386.28 690.472 371.765 703.746 354.91C709.211 348.07 714.294 340.597 718.191 332.33L718.194 332.323C722.088 323.948 724.488 314.997 726.758 306.107C726.935 305.414 727.111 304.722 727.287 304.03C729.38 295.804 731.45 287.667 734.575 279.912L734.578 279.904C742.842 259.056 758.778 241.855 778.227 232.507L778.236 232.503C783.852 229.759 790.535 228.026 796.636 228.289C802.713 228.55 808.073 230.77 811.415 235.784C811.833 236.417 812.181 237.024 812.555 237.674C812.82 238.137 813.098 238.622 813.423 239.153C814.145 240.335 815.003 241.572 816.168 242.59L816.185 242.606L816.203 242.62C817.689 243.842 819.341 244.554 820.9 245.112C821.475 245.319 822.016 245.498 822.536 245.67C823.503 245.99 824.398 246.287 825.31 246.689L825.32 246.693L825.33 246.697C828.847 248.184 831.543 250.94 833.807 254.403C836.079 257.878 837.84 261.945 839.553 265.955C842.436 272.839 845.27 279.675 848.104 286.514L848.114 286.539C850.945 293.368 853.776 300.2 856.658 307.081C858.596 311.891 860.59 316.879 861.768 321.908C862.945 326.929 863.28 331.884 861.975 336.617L861.973 336.625L861.971 336.633C861.562 338.186 860.976 339.711 860.349 341.341C860.266 341.558 860.182 341.776 860.097 341.997C859.392 343.842 858.671 345.813 858.254 347.903L858.253 347.912L858.251 347.921C857.547 351.685 857.915 355.519 858.259 359.091C858.275 359.267 858.292 359.442 858.309 359.617C858.672 363.425 858.948 366.931 858.13 370.256L858.128 370.265C856.944 375.2 853.593 379.024 849.935 383.178L849.886 383.233C846.337 387.263 842.494 391.625 841.212 397.391L841.211 397.395C840.731 399.58 840.613 401.949 840.505 404.134C840.463 404.966 840.423 405.772 840.365 406.53C840.143 409.42 839.667 411.811 838.238 413.665L838.232 413.673L838.226 413.682C836.55 415.919 833.911 417.003 830.814 418.276L830.761 418.297C827.816 419.508 824.382 420.923 822.397 424.131L822.39 424.141L822.384 424.151C821.148 426.221 820.739 428.605 820.431 430.752C820.392 431.028 820.354 431.301 820.316 431.569C820.05 433.477 819.812 435.186 819.21 436.734C817.947 439.773 815.476 441.706 812.34 442.915C809.174 444.136 805.433 444.573 801.888 444.645C801.684 444.649 801.478 444.653 801.271 444.657C797.936 444.72 794.172 444.79 790.659 445.512C786.901 446.284 783.256 447.833 780.606 451.059L780.6 451.067C778.7 453.413 777.648 456.182 776.76 458.81C776.609 459.257 776.463 459.698 776.318 460.134C775.592 462.328 774.913 464.381 773.882 466.26C771.425 470.469 766.841 472.891 762.046 473.24C757.245 473.59 752.452 471.85 749.569 468.01L749.549 467.982L749.527 467.956C749.162 467.513 748.808 467.023 748.431 466.49C748.369 466.402 748.306 466.313 748.243 466.223C747.929 465.778 747.596 465.305 747.251 464.854C746.429 463.774 745.413 462.63 744.038 461.915L744.013 461.902L743.988 461.89C741.469 460.696 738.929 461.22 736.735 462.254C734.564 463.279 732.496 464.913 730.764 466.308L730.754 466.317C726.937 469.451 722.216 472.001 717.568 472.969C712.943 473.932 708.517 473.315 704.998 470.324C703.963 469.443 703.062 468.384 702.068 467.213C701.638 466.708 701.191 466.182 700.708 465.64C699.195 463.946 697.389 462.195 694.975 461.346L694.974 461.345C692.067 460.325 689.446 460.848 687.1 462.134C684.823 463.383 682.746 465.381 680.798 467.397C680.312 467.901 679.833 468.406 679.358 468.906C677.875 470.471 676.427 471.998 674.889 473.33C672.874 475.076 670.867 476.335 668.723 476.788L668.711 476.791L668.699 476.793C667.012 477.178 665.217 477.049 663.283 476.637C661.776 476.315 660.278 475.846 658.717 475.358C658.249 475.211 657.774 475.062 657.292 474.915C653.313 473.703 648.736 472.555 644.656 475.295C643.009 476.383 641.747 477.974 640.678 479.322C640.506 479.54 640.338 479.751 640.175 479.953C638.91 481.516 637.835 482.619 636.419 483.071L636.409 483.075L636.398 483.078C634.753 483.631 633.268 483.176 631.628 481.86C629.927 480.496 628.313 478.401 626.543 476.097L626.51 476.055C624.816 473.848 622.97 471.445 620.913 469.817C618.782 468.13 616.213 467.115 613.218 468.104L613.209 468.107C609.697 469.292 608.069 472.532 606.831 475.355C606.642 475.788 606.461 476.212 606.284 476.628C605.847 477.654 605.431 478.632 604.947 479.574C604.28 480.873 603.557 481.95 602.656 482.744L602.65 482.749L602.644 482.754C600.423 484.754 597.596 484.911 594.06 484.318C592.708 484.091 591.336 483.771 589.903 483.437C589.461 483.334 589.012 483.229 588.557 483.125C586.671 482.696 584.698 482.293 582.756 482.168C580.167 481.965 577.561 482.303 575.045 482.802C573.639 483.081 572.146 483.437 570.695 483.783C569.64 484.035 568.607 484.281 567.648 484.489C562.815 485.532 558.664 485.872 555.091 483.579C551.614 481.283 549.754 477.117 547.676 472.464C547.613 472.323 547.55 472.18 547.486 472.038C545.437 467.454 543.087 462.354 538.216 460.044C536.484 459.223 534.642 458.867 533.008 458.551L532.931 458.536C531.226 458.206 529.739 457.91 528.386 457.274C523.973 454.953 522.629 449.919 521.494 443.549C521.394 442.989 521.296 442.421 521.197 441.846C520.751 439.267 520.285 436.566 519.571 434.035C518.691 430.92 517.398 427.901 515.171 425.465Z" stroke="#222325" stroke-width="3"/>
</g>
<defs>
<filter id="filter0_di_107_2" x="122.703" y="0.556763" width="1097.61" height="730.539" filterUnits="userSpaceOnUse" color-interpolation-filters="sRGB">
<feFlood flood-opacity="0" result="BackgroundImageFix"/>
<feColorMatrix in="SourceAlpha" type="matrix" values="0 0 0 0 0 0 0 0 0 0 0 0 0 0 0 0 0 0 127 0" result="hardAlpha"/>
<feOffset dy="11"/>
<feGaussianBlur stdDeviation="11"/>
<feComposite in2="hardAlpha" operator="out"/>
<feColorMatrix type="matrix" values="0 0 0 0 0 0 0 0 0 0 0 0 0 0 0 0 0 0 0.31 0"/>
<feBlend mode="normal" in2="BackgroundImageFix" result="effect1_dropShadow_107_2"/>
<feBlend mode="normal" in="SourceGraphic" in2="effect1_dropShadow_107_2" result="shape"/>
<feColorMatrix in="SourceAlpha" type="matrix" values="0 0 0 0 0 0 0 0 0 0 0 0 0 0 0 0 0 0 127 0" result="hardAlpha"/>
<feOffset dy="14"/>
<feGaussianBlur stdDeviation="4"/>
<feComposite in2="hardAlpha" operator="arithmetic" k2="-1" k3="1"/>
<feColorMatrix type="matrix" values="0 0 0 0 0 0 0 0 0 0 0 0 0 0 0 0 0 0 0.18 0"/>
<feBlend mode="normal" in2="shape" result="effect2_innerShadow_107_2"/>
</filter>
<filter id="filter1_di_107_2" x="208.468" y="55.7542" width="923.894" height="624.184" filterUnits="userSpaceOnUse" color-interpolation-filters="sRGB">
<feFlood flood-opacity="0" result="BackgroundImageFix"/>
<feColorMatrix in="SourceAlpha" type="matrix" values="0 0 0 0 0 0 0 0 0 0 0 0 0 0 0 0 0 0 127 0" result="hardAlpha"/>
<feOffset dy="11"/>
<feGaussianBlur stdDeviation="11"/>
<feComposite in2="hardAlpha" operator="out"/>
<feColorMatrix type="matrix" values="0 0 0 0 0 0 0 0 0 0 0 0 0 0 0 0 0 0 0.31 0"/>
<feBlend mode="normal" in2="BackgroundImageFix" result="effect1_dropShadow_107_2"/>
<feBlend mode="normal" in="SourceGraphic" in2="effect1_dropShadow_107_2" result="shape"/>
<feColorMatrix in="SourceAlpha" type="matrix" values="0 0 0 0 0 0 0 0 0 0 0 0 0 0 0 0 0 0 127 0" result="hardAlpha"/>
<feOffset dy="14"/>
<feGaussianBlur stdDeviation="4"/>
<feComposite in2="hardAlpha" operator="arithmetic" k2="-1" k3="1"/>
<feColorMatrix type="matrix" values="0 0 0 0 0 0 0 0 0 0 0 0 0 0 0 0 0 0 0.18 0"/>
<feBlend mode="normal" in2="shape" result="effect2_innerShadow_107_2"/>
</filter>
<filter id="filter2_di_107_2" x="285.612" y="107.482" width="772.978" height="521.471" filterUnits="userSpaceOnUse" color-interpolation-filters="sRGB">
<feFlood flood-opacity="0" result="BackgroundImageFix"/>
<feColorMatrix in="SourceAlpha" type="matrix" values="0 0 0 0 0 0 0 0 0 0 0 0 0 0 0 0 0 0 127 0" result="hardAlpha"/>
<feOffset dy="11"/>
<feGaussianBlur stdDeviation="11"/>
<feComposite in2="hardAlpha" operator="out"/>
<feColorMatrix type="matrix" values="0 0 0 0 0 0 0 0 0 0 0 0 0 0 0 0 0 0 0.31 0"/>
<feBlend mode="normal" in2="BackgroundImageFix" result="effect1_dropShadow_107_2"/>
<feBlend mode="normal" in="SourceGraphic" in2="effect1_dropShadow_107_2" result="shape"/>
<feColorMatrix in="SourceAlpha" type="matrix" values="0 0 0 0 0 0 0 0 0 0 0 0 0 0 0 0 0 0 127 0" result="hardAlpha"/>
<feOffset dy="14"/>
<feGaussianBlur stdDeviation="4"/>
<feComposite in2="hardAlpha" operator="arithmetic" k2="-1" k3="1"/>
<feColorMatrix type="matrix" values="0 0 0 0 0 0 0 0 0 0 0 0 0 0 0 0 0 0 0.18 0"/>
<feBlend mode="normal" in2="shape" result="effect2_innerShadow_107_2"/>
</filter>
<filter id="filter3_di_107_2" x="367.506" y="159.633" width="605.912" height="418.263" filterUnits="userSpaceOnUse" color-interpolation-filters="sRGB">
<feFlood flood-opacity="0" result="BackgroundImageFix"/>
<feColorMatrix in="SourceAlpha" type="matrix" values="0 0 0 0 0 0 0 0 0 0 0 0 0 0 0 0 0 0 127 0" result="hardAlpha"/>
<feOffset dy="11"/>
<feGaussianBlur stdDeviation="11"/>
<feComposite in2="hardAlpha" operator="out"/>
<feColorMatrix type="matrix" values="0 0 0 0 0 0 0 0 0 0 0 0 0 0 0 0 0 0 0.31 0"/>
<feBlend mode="normal" in2="BackgroundImageFix" result="effect1_dropShadow_107_2"/>
<feBlend mode="normal" in="SourceGraphic" in2="effect1_dropShadow_107_2" result="shape"/>
<feColorMatrix in="SourceAlpha" type="matrix" values="0 0 0 0 0 0 0 0 0 0 0 0 0 0 0 0 0 0 127 0" result="hardAlpha"/>
<feOffset dy="14"/>
<feGaussianBlur stdDeviation="4"/>
<feComposite in2="hardAlpha" operator="arithmetic" k2="-1" k3="1"/>
<feColorMatrix type="matrix" values="0 0 0 0 0 0 0 0 0 0 0 0 0 0 0 0 0 0 0.18 0"/>
<feBlend mode="normal" in2="shape" result="effect2_innerShadow_107_2"/>
</filter>
<filter id="filter4_di_107_2" x="455.053" y="215.762" width="431.26" height="304.032" filterUnits="userSpaceOnUse" color-interpolation-filters="sRGB">
<feFlood flood-opacity="0" result="BackgroundImageFix"/>
<feColorMatrix in="SourceAlpha" type="matrix" values="0 0 0 0 0 0 0 0 0 0 0 0 0 0 0 0 0 0 127 0" result="hardAlpha"/>
<feOffset dy="11"/>
<feGaussianBlur stdDeviation="11"/>
<feComposite in2="hardAlpha" operator="out"/>
<feColorMatrix type="matrix" values="0 0 0 0 0 0 0 0 0 0 0 0 0 0 0 0 0 0 0.31 0"/>
<feBlend mode="normal" in2="BackgroundImageFix" result="effect1_dropShadow_107_2"/>
<feBlend mode="normal" in="SourceGraphic" in2="effect1_dropShadow_107_2" result="shape"/>
<feColorMatrix in="SourceAlpha" type="matrix" values="0 0 0 0 0 0 0 0 0 0 0 0 0 0 0 0 0 0 127 0" result="hardAlpha"/>
<feOffset dy="14"/>
<feGaussianBlur stdDeviation="4"/>
<feComposite in2="hardAlpha" operator="arithmetic" k2="-1" k3="1"/>
<feColorMatrix type="matrix" values="0 0 0 0 0 0 0 0 0 0 0 0 0 0 0 0 0 0 0.18 0"/>
<feBlend mode="normal" in2="shape" result="effect2_innerShadow_107_2"/>
</filter>
<linearGradient id="paint0_linear_107_2" x1="1070.66" y1="142.111" x2="327.058" y2="530.674" gradientUnits="userSpaceOnUse">
<stop stop-color="#111315"/>
<stop offset="1" stop-color="#17191B"/>
</linearGradient>
<linearGradient id="paint1_linear_107_2" x1="948.242" y1="209.312" x2="432.702" y2="477.343" gradientUnits="userSpaceOnUse">
<stop stop-color="#111315"/>
<stop offset="1" stop-color="#17191B"/>
</linearGradient>
<linearGradient id="paint2_linear_107_2" x1="817.315" y1="276.313" x2="540.805" y2="416.622" gradientUnits="userSpaceOnUse">
<stop stop-color="#111214"/>
<stop offset="1" stop-color="#17191B"/>
</linearGradient>
</defs>
</svg>
