<svg width="24" height="24" viewBox="0 0 24 24" fill="none" xmlns="http://www.w3.org/2000/svg">
<rect width="24" height="24" rx="4" fill="#8247E5"/>
<path d="M15.6005 9.58996C15.3446 9.44278 15.0157 9.44278 14.7232 9.58996L12.6762 10.8042L11.2872 11.5769L9.27676 12.7911C9.02089 12.9383 8.69191 12.9383 8.39948 12.7911L6.82768 11.8345C6.5718 11.6873 6.38903 11.3929 6.38903 11.0618V9.22201C6.38903 8.92765 6.53525 8.63328 6.82768 8.44931L8.39948 7.52943C8.65535 7.38224 8.98433 7.38224 9.27676 7.52943L10.8486 8.4861C11.1044 8.63328 11.2872 8.92764 11.2872 9.2588V10.473L12.6762 9.66355V8.41251C12.6762 8.11815 12.53 7.82379 12.2376 7.63981L9.31332 5.91043C9.05744 5.76325 8.72846 5.76325 8.43603 5.91043L5.43864 7.67661C5.14621 7.82379 5 8.11815 5 8.41251V11.8713C5 12.1656 5.14621 12.46 5.43864 12.644L8.39948 14.3733C8.65535 14.5205 8.98433 14.5205 9.27676 14.3733L11.2872 13.1959L12.6762 12.3864L14.6867 11.209C14.9426 11.0618 15.2715 11.0618 15.564 11.209L17.1358 12.1288C17.3916 12.276 17.5744 12.5704 17.5744 12.9015V14.7413C17.5744 15.0357 17.4282 15.33 17.1358 15.514L15.6005 16.4339C15.3446 16.5811 15.0157 16.5811 14.7232 16.4339L13.1514 15.514C12.8956 15.3668 12.7128 15.0725 12.7128 14.7413V13.5638L11.3238 14.3733V15.5876C11.3238 15.8819 11.47 16.1763 11.7624 16.3603L14.7232 18.0897C14.9791 18.2368 15.3081 18.2368 15.6005 18.0897L18.5614 16.3603C18.8172 16.2131 19 15.9187 19 15.5876V12.092C19 11.7977 18.8538 11.5033 18.5614 11.3193L15.6005 9.58996Z" fill="white"/>
</svg>
